<svg width="81" height="72" viewBox="0 0 81 72" fill="none" xmlns="http://www.w3.org/2000/svg">
<g clip-path="url(#clip0_1_660)">
<g clip-path="url(#clip1_1_660)">
<g clip-path="url(#clip2_1_660)">
<path d="M0.953247 49.0112L4.50654 31.3344H4.80164L11.2611 42.481L17.3547 31.3344H17.6618L21.241 49.0112H17.3547L15.9033 41.1953L11.3093 49.6377H11.0367L6.10111 41.0763L4.60145 49.0112H0.953247Z" fill="white"/>
<path d="M28.6407 43.5682H33.1416L30.9205 38.2064L28.6407 43.5682ZM22.24 49.0112L30.9671 31.3587H31.2259L39.7649 49.0112H35.4885L34.4013 46.5209H27.4587L26.349 49.0112H22.24Z" fill="white"/>
<path d="M54.3992 39.5058V47.8325C53.2482 48.4055 52.1282 48.8387 51.0392 49.132C49.9485 49.4237 48.8923 49.5686 47.869 49.5686C45.2631 49.5686 43.0991 48.7075 41.3785 46.9869C39.6597 45.268 38.7985 43.0971 38.7985 40.474C38.7985 37.8285 39.67 35.6402 41.4148 33.9076C43.1595 32.1766 45.365 31.312 48.033 31.312C49.0408 31.312 50.0003 31.4484 50.915 31.7245C51.8296 32.0006 52.7063 32.4165 53.5484 32.9756L53.1101 37.2641C52.3162 36.46 51.5241 35.8715 50.7372 35.497C49.9503 35.1225 49.1254 34.9361 48.2573 34.9361C46.7214 34.9361 45.4496 35.4504 44.4434 36.4772C43.4356 37.5039 42.9317 38.7897 42.9317 40.3325C42.9317 41.9547 43.4183 43.2783 44.3899 44.3051C45.3633 45.3337 46.6161 45.8479 48.152 45.8479C48.5075 45.8479 48.8648 45.8168 49.2271 45.753C49.5896 45.6891 49.9675 45.5994 50.361 45.482V42.9901H47.1132V39.5058H54.3992Z" fill="white"/>
<path d="M61.9201 31.8901H57.8353V49.0129H61.9201V31.8901Z" fill="white"/>
<path d="M78.5596 37.3107C77.8193 36.5444 77.0703 35.9802 76.311 35.6091C75.5499 35.2416 74.7526 35.0551 73.9191 35.0551C72.4695 35.0551 71.2856 35.5556 70.3657 36.5548C69.4443 37.5557 68.9835 38.8397 68.9835 40.405C68.9835 41.9736 69.4391 43.2421 70.3537 44.2137C71.2666 45.1869 72.4556 45.6719 73.9208 45.6719C74.7854 45.6719 75.65 45.4907 76.5129 45.13C77.3757 44.7676 78.2352 44.2257 79.0928 43.5009L78.8339 48.0483C78.1023 48.5435 77.2998 48.9215 76.43 49.182C75.5603 49.4409 74.656 49.572 73.7206 49.572C72.7128 49.572 71.7481 49.415 70.8213 49.0992C69.8964 48.7834 69.0456 48.3209 68.2656 47.7048C67.1628 46.8403 66.3173 45.7823 65.7322 44.5364C65.1472 43.2904 64.8538 41.9287 64.8538 40.455C64.8538 39.1883 65.0712 38.001 65.5044 36.8896C65.9359 35.7783 66.5675 34.7997 67.3924 33.949C68.2276 33.0982 69.1906 32.4476 70.2864 31.9955C71.3805 31.5415 72.5333 31.3172 73.7465 31.3172C74.7077 31.3172 75.6241 31.4501 76.4973 31.7176C77.3722 31.9851 78.2058 32.3906 79.0013 32.9342L78.5596 37.3107Z" fill="white"/>
<path d="M68.6106 64.3271H72.1295L70.3933 60.1353L68.6106 64.3271Z" fill="white"/>
<path d="M73.9657 68.581L73.1166 66.6327H67.6874L66.8211 68.581H63.6078L70.4297 54.7803H70.6333L77.3102 68.581H73.9657ZM60.1581 68.581L59.0225 62.4702L55.4313 69.0712H55.219L51.3603 62.3787L50.1868 68.5827H47.3341L50.1143 54.7614H50.3438L55.3933 63.4763L60.1564 54.7614H60.3962L63.1936 68.5827H60.1581V68.581ZM45.9967 68.581H37.6769V55.1945H45.9225V57.9539H40.7798V60.3752H45.1839V63.1156H40.7798V65.7647H45.9967V68.581ZM34.612 69.0884H34.3342L25.9713 61.2777V68.5793H23.0254V54.7596H23.3309L31.6679 62.5703V55.1945H34.612V69.0884ZM19.907 68.581H16.7127V55.1945H19.907V68.581ZM14.395 67.8251C13.8221 68.2117 13.1956 68.5086 12.5157 68.7105C11.8374 68.9158 11.1299 69.0159 10.3965 69.0159C9.60954 69.0159 8.85366 68.8917 8.13059 68.6467C7.4075 68.4016 6.74137 68.0374 6.13218 67.5577C5.27103 66.8795 4.61008 66.0546 4.15276 65.0795C3.69371 64.1028 3.46419 63.0414 3.46419 61.8887C3.46419 60.8981 3.63331 59.9679 3.97156 59.1016C4.3098 58.2335 4.80164 57.4656 5.44879 56.8012C6.10112 56.1368 6.85354 55.6277 7.70951 55.2756C8.56375 54.9201 9.4663 54.7441 10.4155 54.7441C11.1662 54.7441 11.8823 54.8494 12.5657 55.0599C13.2492 55.267 13.9014 55.5845 14.5227 56.0108L14.181 59.4347C13.6029 58.8393 13.0161 58.3958 12.4224 58.1059C11.8289 57.8176 11.2042 57.6727 10.5518 57.6727C9.4197 57.6727 8.49299 58.0645 7.77163 58.8445C7.05199 59.6262 6.69304 60.6306 6.69304 61.8559C6.69304 63.0811 7.04854 64.0717 7.763 64.8327C8.47918 65.5921 9.40762 65.9717 10.5518 65.9717C11.23 65.9717 11.9031 65.8302 12.5778 65.5472C13.2526 65.2659 13.9238 64.8396 14.5952 64.2719L14.395 67.8251ZM77.8952 52.0657H2.92749C1.85925 52.0657 0.991211 52.9304 0.991211 54.0003V70.0635C0.991211 71.1317 1.85753 71.9997 2.92749 71.9997H77.8952C78.9617 71.9997 79.8297 71.1334 79.8297 70.0635V54.0003C79.8297 52.9304 78.9634 52.0657 77.8952 52.0657Z" fill="white"/>
<path d="M69.327 26.8579L67.6445 25.9726L65.9636 26.8579L66.2845 24.9838L64.923 23.6584L66.8023 23.3857L67.6428 21.6824L68.4832 23.3857L70.3625 23.6584L69.0026 24.9838L69.327 26.8579ZM55.5919 26.8579L53.911 25.9726L52.2284 26.8579L52.5495 24.9838L51.1895 23.6584L53.0689 23.3857L53.9093 21.6824L54.7498 23.3857L56.6291 23.6584L55.2691 24.9838L55.5919 26.8579ZM41.8568 26.8579L40.1759 25.9726L38.4933 26.8579L38.8143 24.9838L37.4545 23.6584L39.3338 23.3857L40.1741 21.6824L41.0146 23.3857L42.8939 23.6584L41.5323 24.9838L41.8568 26.8579ZM28.1233 26.8579L26.4425 25.9726L24.7616 26.8579L25.0826 24.9838L23.721 23.6584L25.6003 23.3857L26.4408 21.6824L27.2811 23.3857L29.1605 23.6584L27.7989 24.9838L28.1233 26.8579ZM14.39 26.8579L12.7074 25.9726L11.0265 26.8579L11.3474 24.9838L9.98586 23.6584L11.8669 23.3857L12.7074 21.6824L13.5478 23.3857L15.4271 23.6584L14.0672 24.9838L14.39 26.8579ZM78.2388 20.8282H2.58417C1.70577 20.8282 0.993042 21.5409 0.993042 22.4176V26.3747C0.993042 27.2531 1.70577 27.9658 2.58417 27.9658H78.2388C79.1172 27.9658 79.8299 27.2531 79.8299 26.3747V22.4193C79.8299 21.5409 79.1172 20.8282 78.2388 20.8282Z" fill="white"/>
<path d="M48.1953 4.77537L52.9169 11.2107L58.0182 10.3357L53.2966 3.90043L48.1953 4.77537Z" fill="white"/>
<path d="M39.0421 6.34925L43.7619 12.7811L48.8632 11.9061L44.1433 5.47085L39.0421 6.34925Z" fill="white"/>
<path d="M57.3519 3.20496L62.0736 9.64023L67.1749 8.76355L62.4532 2.33001L57.3519 3.20496Z" fill="white"/>
<path d="M1.32255 12.8207C0.457956 12.9692 -0.125343 13.7906 0.0230702 14.6569L0.692655 18.5589C0.841068 19.4252 1.66425 20.0067 2.52884 19.8584L12.2396 18.1947L7.51794 11.7595L1.32255 12.8207Z" fill="white"/>
<path d="M20.7302 9.48836L25.4501 15.9237L30.5515 15.0487L25.8315 8.61341L20.7302 9.48836Z" fill="white"/>
<path d="M29.8853 7.91795L34.6052 14.3533L39.7065 13.4782L34.9866 7.04472L29.8853 7.91795Z" fill="white"/>
<path d="M11.5736 11.0605L16.2952 17.4958L21.3965 16.6191L16.6749 10.1856L11.5736 11.0605Z" fill="white"/>
<path d="M77.7261 1.3239C77.5932 0.552499 76.9271 0.00716616 76.1712 0.000263214H76.1643C76.0729 0.000263214 75.9831 0.00716569 75.8882 0.0226973L66.5088 1.63453L71.2287 8.06808L77.0979 7.06198C77.9642 6.91357 78.5458 6.09039 78.3974 5.22579L77.7261 1.3239Z" fill="white"/>
</g>
</g>
</g>
<defs>
<clipPath id="clip0_1_660">
<rect width="80.47" height="72" fill="white"/>
</clipPath>
<clipPath id="clip1_1_660">
<rect width="80.47" height="72" fill="white"/>
</clipPath>
<clipPath id="clip2_1_660">
<rect width="80.47" height="71.9995" fill="white" transform="translate(0 0.000263214)"/>
</clipPath>
</defs>
</svg>
