<svg width="38" height="25" viewBox="0 0 38 25" fill="none" xmlns="http://www.w3.org/2000/svg">
<g clip-path="url(#clip0_1_608)">
<path d="M0 4.7998C0 2.59066 1.79086 0.799805 4 0.799805H33.8947C36.1039 0.799805 37.8947 2.59066 37.8947 4.7998V20.7998C37.8947 23.0089 36.1039 24.7998 33.8947 24.7998H4C1.79086 24.7998 0 23.0089 0 20.7998V4.7998Z" fill="white"/>
<path d="M8.34666 9.73857C8.23239 9.55359 8.08337 9.39249 7.90785 9.26417C7.73057 9.14296 7.53633 9.04864 7.33145 8.98427C7.10884 8.91144 6.879 8.86293 6.64595 8.83958C6.3732 8.81299 6.09927 8.80033 5.82524 8.80163H3.45325C3.39826 8.79644 3.3428 8.80233 3.29013 8.81896C3.23747 8.8356 3.18868 8.86263 3.14665 8.89846C3.10463 8.93429 3.07022 8.9782 3.04547 9.02757C3.02072 9.07694 3.00613 9.13078 3.00257 9.18589C3.00257 9.18589 3.00257 9.20012 3.00257 9.20724V13.0594C3.33143 13.765 3.87754 14.3469 4.56097 14.7197V13.9465C4.55576 13.8868 4.56237 13.8267 4.58043 13.7696C4.59848 13.7125 4.62762 13.6595 4.66618 13.6137C4.70473 13.5679 4.75195 13.5301 4.80513 13.5025C4.8583 13.475 4.91639 13.4582 4.97606 13.4531H5.68766C6.6586 13.4531 7.39945 13.2499 7.91022 12.8435C8.42099 12.4371 8.68032 11.8346 8.68823 11.036C8.68906 10.8059 8.66198 10.5765 8.60758 10.3529C8.55336 10.1357 8.46531 9.9284 8.34666 9.73857ZM6.95668 11.7192C6.87395 11.8615 6.75099 11.9762 6.60325 12.0489C6.44317 12.1253 6.27021 12.1712 6.09327 12.1841C5.89892 12.2083 5.70324 12.2202 5.50739 12.2197H4.82426C4.66059 12.2197 4.55859 12.0868 4.55859 11.8923V10.3031C4.55623 10.2682 4.56161 10.2333 4.57434 10.2007C4.58706 10.1682 4.60682 10.1388 4.6322 10.1148C4.65759 10.0908 4.68797 10.0727 4.72117 10.0618C4.75437 10.0508 4.78957 10.0474 4.82426 10.0517H5.50739C5.72878 10.0517 5.93751 10.058 6.1336 10.0706C6.30835 10.079 6.47987 10.1209 6.63883 10.194C6.78508 10.2591 6.90709 10.3687 6.98751 10.5071C7.07832 10.6927 7.11998 10.8985 7.10848 11.1048C7.1131 11.3187 7.0607 11.5299 6.95668 11.7168V11.7192ZM4.56334 14.9522C3.97839 14.7412 3.44598 14.4062 3.00257 13.9702V15.8322C2.9976 15.8677 2.99986 15.9038 3.0092 15.9384C3.01854 15.9729 3.03478 16.0053 3.05694 16.0334C3.0791 16.0615 3.10671 16.0849 3.13813 16.1021C3.16955 16.1193 3.20412 16.13 3.23977 16.1335H4.31191C4.59655 16.1335 4.56334 15.8298 4.56334 15.8298V14.9522ZM19.2981 10.8297H18.3731C18.2848 10.8239 18.1973 10.8496 18.1261 10.9021C18.0549 10.9546 18.0046 11.0306 17.9841 11.1167L16.9096 14.0769C16.9096 14.0769 15.9608 11.38 15.8896 11.1712C15.8696 11.0749 15.8173 10.9883 15.7414 10.9258C15.6655 10.8632 15.5705 10.8285 15.4721 10.8273H14.6206C14.317 10.8273 14.317 11.0645 14.3573 11.157C14.3976 11.2495 15.5623 14.4422 16.0177 15.6638C16.0894 15.8142 16.1397 15.9739 16.1671 16.1382C16.1376 16.3004 16.0763 16.4552 15.9868 16.5936C15.9522 16.6523 15.9125 16.7079 15.8682 16.7597C16.7459 16.4987 17.7658 15.5476 18.2782 14.5205C18.7953 13.0973 19.476 11.1997 19.5069 11.1025C19.5401 10.953 19.5401 10.8297 19.2981 10.8297ZM15.1756 17.049C15.0963 17.0469 15.0171 17.0406 14.9384 17.0301C14.8412 17.0158 14.6562 17.0301 14.6562 17.1961V17.9077C14.6562 18.1805 14.789 18.1995 14.8578 18.2184C15.0775 18.2666 15.3018 18.2905 15.5267 18.2896C15.7924 18.2966 16.0562 18.2422 16.2976 18.1307C16.5184 18.0191 16.7144 17.8642 16.874 17.6752C17.0549 17.4684 17.208 17.2387 17.3294 16.9921C17.4606 16.7296 17.5856 16.4394 17.7042 16.1216L17.8417 15.7444C17.5666 16.0172 16.3521 17.1629 15.1756 17.049ZM13.7762 11.6812C13.7258 11.5614 13.6569 11.4501 13.5722 11.3515C13.4864 11.2602 13.3892 11.1804 13.2828 11.1143C13.1679 11.0361 13.0455 10.9693 12.9175 10.9151C12.7872 10.8646 12.6531 10.8241 12.5166 10.7941C12.3604 10.7595 12.2018 10.7366 12.0422 10.7253C11.8714 10.7079 11.6801 10.6992 11.4682 10.6992C10.0545 10.6992 9.2496 11.1452 9.05352 12.037C9.04515 12.0703 9.04409 12.1049 9.05041 12.1386C9.05673 12.1723 9.07027 12.2042 9.09011 12.2322C9.10995 12.2601 9.13561 12.2835 9.16533 12.3006C9.19504 12.3176 9.22811 12.3281 9.26225 12.3312H10.1328C10.37 12.3312 10.37 12.2576 10.4601 12.0536C10.4996 11.9426 10.5705 11.8453 10.6641 11.7737C10.8865 11.6302 11.1496 11.5627 11.4136 11.5816C11.6599 11.5564 11.9073 11.6176 12.1134 11.7548C12.2706 11.9015 12.3635 12.1044 12.3719 12.3193C12.3719 12.6134 12.2818 12.8079 11.9165 12.8079C11.0507 12.7771 10.1209 12.8743 9.5967 13.1756C9.33865 13.3331 9.12683 13.556 8.9827 13.8218C8.83857 14.0876 8.76726 14.3867 8.77599 14.6889C8.77003 14.9243 8.81789 15.158 8.91594 15.372C9.0083 15.5581 9.14221 15.7204 9.30732 15.8464C9.48064 15.9878 9.68072 16.0927 9.89557 16.1548C10.1383 16.2205 10.3889 16.2524 10.6404 16.2497C10.9787 16.2549 11.3156 16.2069 11.639 16.1074C11.9248 15.9903 12.1949 15.8381 12.4431 15.6543V15.8204C12.4431 15.984 12.4929 16.1311 12.6803 16.1311H13.6884C13.8924 16.1311 13.9398 15.9864 13.9398 15.8061V12.7012C13.941 12.5075 13.9276 12.314 13.8995 12.1224C13.8771 11.9707 13.8357 11.8225 13.7762 11.6812ZM12.398 14.7316C12.398 14.7316 12.1371 15.2772 11.212 15.2772C10.9902 15.2874 10.7709 15.2267 10.5858 15.104C10.5044 15.0408 10.44 14.9582 10.3986 14.8637C10.3572 14.7693 10.34 14.666 10.3486 14.5632C10.3384 14.4252 10.3704 14.2873 10.4403 14.1679C10.5102 14.0484 10.6147 13.953 10.74 13.8943C11.1142 13.7505 11.5135 13.6836 11.9141 13.6974C11.9754 13.6882 12.038 13.6923 12.0976 13.7095C12.1571 13.7268 12.2123 13.7567 12.2591 13.7973C12.306 13.8379 12.3436 13.8881 12.3692 13.9446C12.3948 14.001 12.4079 14.0624 12.4075 14.1244L12.398 14.7316Z" fill="#333333"/>
<path d="M35.4514 12.7344C35.5683 12.9223 35.6302 13.1393 35.6302 13.3606C35.6302 13.5819 35.5683 13.7988 35.4514 13.9868C35.2142 14.3473 33.9215 15.7278 33.4945 16.1714C33.1245 16.5557 32.624 16.9447 32.1283 16.9447H21.8599C20.4699 16.9447 20.3869 16.4703 20.3869 15.4124V11.0977C20.3869 10.0137 20.7071 9.69824 21.6583 9.69824H32.152C32.643 9.69824 33.0818 9.94967 33.5752 10.4573C34.0069 10.8913 35.2806 12.4782 35.4514 12.7344Z" fill="#33CCCC"/>
<path d="M22.7185 11.3658V11.3397C22.7185 11.1998 22.7185 11.0645 22.4813 11.0645H21.6203C21.4186 11.0645 21.4091 11.1737 21.4091 11.3444V12.483C21.7488 12.0102 22.1981 11.6268 22.7185 11.3658Z" fill="white"/>
<path d="M28.4848 15.4836V15.4219V12.6751C28.4848 11.5255 27.9772 10.9507 26.962 10.9507C26.6794 10.954 26.4034 11.0362 26.165 11.1879C25.9023 11.3517 25.6676 11.5568 25.47 11.7951C25.3806 11.5375 25.2067 11.3177 24.9766 11.1713C24.715 11.0271 24.4188 10.9573 24.1204 10.9697C23.6813 10.9713 23.2552 11.1181 22.9083 11.3871C22.8324 11.463 21.4068 12.5731 21.4068 13.7307V15.4883C21.4068 15.5429 21.3783 15.7563 21.6179 15.7563H22.5121C22.7897 15.7563 22.7636 15.5737 22.7636 15.4978V12.6514C22.913 12.4498 23.219 11.9683 23.7242 11.9683C23.805 11.9609 23.8864 11.9753 23.9598 12.0099C24.0332 12.0445 24.096 12.0981 24.1417 12.1651C24.2431 12.3677 24.2874 12.594 24.2698 12.8198V15.0376V15.493C24.2698 15.5476 24.2413 15.7611 24.4809 15.7611H25.3657C25.6432 15.7611 25.6171 15.5784 25.6171 15.5025V15.4409V12.6419C25.7784 12.4403 26.0915 11.9588 26.5777 11.9588C26.6595 11.9521 26.7416 11.9667 26.816 12.0012C26.8904 12.0357 26.9546 12.0889 27.0023 12.1557C27.1054 12.3577 27.1505 12.5842 27.1328 12.8103V15.0281V15.4836C27.1328 15.5381 27.1043 15.7516 27.3439 15.7516H28.2381C28.518 15.7374 28.4848 15.5571 28.4848 15.4836Z" fill="white"/>
<path d="M33.4163 14.3663C33.2643 14.7749 32.9859 15.1243 32.6215 15.3637C32.2572 15.603 31.8259 15.7198 31.3906 15.697C30.0243 15.697 29.1135 14.7672 29.1135 13.3725C29.1135 11.9777 30.0623 11.0005 31.3432 11.0005C32.624 11.0005 33.4779 11.8876 33.5325 13.3179C33.5325 13.5006 33.4874 13.6619 33.2573 13.6619H30.3588C30.3778 14.428 30.7454 14.8479 31.4001 14.8479C31.5739 14.8522 31.7453 14.8067 31.8941 14.7168C32.0429 14.6268 32.1628 14.4962 32.2398 14.3402C32.2701 14.2961 32.3108 14.2602 32.3585 14.2358C32.4061 14.2114 32.459 14.1992 32.5125 14.2003H33.2597C33.2821 14.1992 33.3045 14.2032 33.3252 14.212C33.3458 14.2208 33.3643 14.2341 33.3791 14.2509C33.3939 14.2678 33.4047 14.2878 33.4107 14.3094C33.4168 14.331 33.4178 14.3537 33.4139 14.3758L33.4163 14.3663ZM31.3479 11.8852C30.8047 11.8852 30.4371 12.2624 30.3564 12.8838H32.3014C32.2516 12.3407 31.9575 11.8852 31.3479 11.8852Z" fill="white"/>
</g>
<defs>
<clipPath id="clip0_1_608">
<rect width="38" height="24" fill="white" transform="translate(0 0.799805)"/>
</clipPath>
</defs>
</svg>
